<svg width="16" height="16" viewBox="0 0 16 16" fill="none" xmlns="http://www.w3.org/2000/svg">
<path d="M8 0C12.4184 0 16 3.55487 16 7.9403C16 12.3257 12.4184 15.8806 8 15.8806C3.5816 15.8806 0 12.3257 0 7.9403C0 3.55487 3.5816 0 8 0ZM8 1.58806C6.30261 1.58806 4.67475 2.25731 3.47452 3.44859C2.27428 4.63986 1.6 6.25558 1.6 7.9403C1.6 9.62502 2.27428 11.2407 3.47452 12.432C4.67475 13.6233 6.30261 14.2925 8 14.2925C9.69739 14.2925 11.3253 13.6233 12.5255 12.432C13.7257 11.2407 14.4 9.62502 14.4 7.9403C14.4 6.25558 13.7257 4.63986 12.5255 3.44859C11.3253 2.25731 9.69739 1.58806 8 1.58806ZM8 3.17612C8.19595 3.17615 8.38507 3.24755 8.5315 3.37678C8.67793 3.50602 8.77147 3.6841 8.7944 3.87725L8.8 3.97015V7.61157L10.9656 9.76101C11.1091 9.9039 11.1924 10.0956 11.1986 10.2973C11.2048 10.4989 11.1334 10.6954 10.999 10.8467C10.8646 10.998 10.6772 11.0928 10.4748 11.112C10.2725 11.1311 10.0704 11.0731 9.9096 10.9497L9.8344 10.8838L7.4344 8.50168C7.31006 8.37816 7.23021 8.21742 7.2072 8.04432L7.2 7.9403V3.97015C7.2 3.75956 7.28429 3.5576 7.43431 3.40869C7.58434 3.25978 7.78783 3.17612 8 3.17612Z" fill="#101111"/>
</svg>
