<svg width="17" height="17" viewBox="0 0 17 17" fill="none" xmlns="http://www.w3.org/2000/svg">
<path d="M15.88 0.880005L10.5582 15.6173C10.5223 15.6957 10.4646 15.7621 10.392 15.8087C10.3195 15.8552 10.2351 15.88 10.1488 15.88C10.0626 15.88 9.9782 15.8552 9.90563 15.8087C9.83306 15.7621 9.77539 15.6957 9.73947 15.6173L6.87388 9.88613L1.14271 7.02054C1.06433 6.98462 0.997901 6.92695 0.951331 6.85438C0.904761 6.78181 0.880005 6.6974 0.880005 6.61117C0.880005 6.52495 0.904761 6.44053 0.951331 6.36797C0.997901 6.2954 1.06433 6.23773 1.14271 6.2018L15.88 0.880005Z" fill="#101111" stroke="#101111" stroke-width="1.75995" stroke-linecap="round" stroke-linejoin="round"/>
</svg>
