<svg width="32" height="32" viewBox="0 0 32 32" fill="none" xmlns="http://www.w3.org/2000/svg">
<path d="M3.2 28.6663C2.32 28.6663 1.56693 28.3565 0.9408 27.7369C0.314667 27.1173 0.00106667 26.3716 0 25.4997V6.49967C0 5.62884 0.3136 4.88362 0.9408 4.26401C1.568 3.6444 2.32107 3.33406 3.2 3.33301H28.8C29.68 3.33301 30.4336 3.64334 31.0608 4.26401C31.688 4.88467 32.0011 5.6299 32 6.49967V25.4997C32 26.3705 31.6869 27.1163 31.0608 27.7369C30.4347 28.3576 29.6811 28.6674 28.8 28.6663H3.2ZM16 17.583L3.2 9.66634V25.4997H28.8V9.66634L16 17.583ZM16 14.4163L28.8 6.49967H3.2L16 14.4163ZM3.2 9.66634V6.49967V25.4997V9.66634Z" fill="#101111"/>
</svg>
