<svg width="1200" height="2" viewBox="0 0 1200 2" fill="none" xmlns="http://www.w3.org/2000/svg">
<path d="M11.4301 0.0101699C18.1545 -0.015883 26.9692 0.0119737 33.6683 0.0502087C35.7677 0.0620673 34.7046 0.115075 36.1539 0.125648C38.9885 0.146258 41.6292 0.120261 44.4303 0.144813C45.3586 0.153209 44.2031 0.237174 45.1765 0.244056C50.5105 0.281163 55.5567 0.259777 60.9602 0.277625C87.5759 0.365685 113.739 0.397205 140.68 0.435461C149.563 0.448004 160.362 0.524206 169.537 0.490881C170.609 0.486916 169.97 0.413216 170.174 0.407141C173.37 0.31415 172.307 0.462935 174.394 0.482702C182.677 0.560754 191.888 0.567542 199.86 0.539099C203.251 0.526782 199.851 0.380395 203.265 0.462561C203.503 0.468112 202.642 0.546377 203.572 0.554724C205.681 0.573498 209.683 0.559509 211.318 0.56571C214.468 0.578057 214.989 0.577269 217.969 0.578161C222.042 0.580061 226.887 0.618966 231.258 0.601232C232.191 0.597215 230.956 0.516985 232.443 0.503332C233.932 0.489702 237.872 0.496505 239.2 0.515417C240.528 0.534339 239.963 0.597399 240.198 0.611853C242.132 0.733849 246.689 0.564884 247.275 0.560705C257.965 0.489506 267.132 0.58576 277.167 0.585485C284.785 0.585073 292.93 0.553296 300.179 0.557653C308.814 0.563155 316.133 0.606631 324.523 0.599157C325.408 0.598461 324.371 0.50413 325.452 0.503088C336.941 0.492111 348.35 0.502394 359.789 0.566076C360.936 0.572546 359.458 0.655368 360.604 0.666784C367.621 0.734849 378.725 0.898357 382.892 0.537756C387.646 0.551837 393.416 0.566385 397.669 0.639074C400.411 0.685858 397.748 0.776084 401.116 0.737584C401.876 0.729007 400.888 0.649991 402.027 0.643102C406.823 0.614176 412.063 0.639861 416.808 0.599035C417.773 0.590545 417.51 0.519744 417.783 0.506994C420.081 0.403741 423.907 0.574425 424.741 0.586828C431.092 0.679315 435.73 0.642919 441.646 0.645178C443.019 0.645741 441.396 0.550639 442.718 0.547766C449.57 0.534136 456.667 0.54231 463.376 0.584509C464.869 0.594124 463.496 0.675134 464.21 0.683874C467.354 0.721424 468.051 0.568417 471.067 0.601477C471.703 0.60825 471.344 0.6776 471.461 0.685217C473.276 0.804778 474.853 0.635368 475.32 0.631628C481.225 0.580523 485 0.757378 490.705 0.732335C491.388 0.729161 489.848 0.641412 491.767 0.637853C504.549 0.61363 518.067 0.637735 530.718 0.707922C532.685 0.718716 531.281 0.784634 531.405 0.79276C533.422 0.919728 534.728 0.749606 535.369 0.7432C540.429 0.697082 545.156 0.839748 548.594 0.637121C570.024 0.707439 591.355 0.593653 612.608 0.775182C612.878 0.777285 612.394 0.86107 612.933 0.864903C619.424 0.911948 618.177 0.781731 622.473 0.622473C623.555 0.582482 626.846 0.77476 627.137 0.788854C628.198 0.840791 627.098 0.96544 627.453 0.975499C630.393 1.05448 629.914 0.642259 633.88 0.642126C634.004 0.642813 633.483 0.718688 633.816 0.726232C634.85 0.749917 635.876 0.719767 636.888 0.745885C639.204 0.806321 640.029 1.00663 643.566 0.89005C644.014 0.87492 643.33 0.64109 646.872 0.652136C648.283 0.656737 654.532 0.65273 656.283 0.667883C658.032 0.683018 656.831 0.758369 656.956 0.761632C661.669 0.861272 659.882 0.902568 662.243 1.05008C664.604 1.19704 663.949 0.846531 664.912 0.807408C665.876 0.768397 669.332 0.850607 670.181 0.879186C671.029 0.907777 669.971 0.955658 670.726 0.971837C675.729 1.07755 672.922 0.797855 674.571 0.742223C678.458 0.610497 681.486 0.870438 685.044 0.895909C686.007 0.902788 685.222 0.843585 686.079 0.838048C689.475 0.816904 691.517 0.898013 695.381 0.823644C696.013 0.811525 699.136 0.655241 701.158 0.769933C701.444 0.786471 700.63 0.851248 702.078 0.865758C704.24 0.887534 708.135 0.901692 710.46 0.88004C712.175 0.86402 710.209 0.757283 712.368 0.790441C713.328 0.805246 711.549 0.867688 713.353 0.890294C715.146 0.912893 719.733 0.91015 721.478 0.907994C723.22 0.905791 722.266 0.824826 722.407 0.819371C723.259 0.788126 726.602 0.749085 726.898 0.749181C741.8 0.739297 755.542 0.875772 770.051 0.830602C771.19 0.827174 770.431 0.741795 770.605 0.740392C774.503 0.70462 771.43 0.931622 774.153 1.0076C773.759 0.834345 775.367 0.865716 778.113 0.846715C779.436 0.837418 778.715 0.770331 778.836 0.763463C780.798 0.661566 782.164 0.79318 782.516 0.820104C783.816 0.919144 785.23 0.802121 786.114 0.868321C786.998 0.934027 784.964 1.03143 787.597 1.03019C788.336 0.968165 786.381 0.806089 788.38 0.779821C795.924 0.680461 810.005 0.807627 816.07 0.820836C822.124 0.834035 824.079 0.822592 827.606 0.845006C833.977 0.885533 831.643 0.765283 835.599 0.710241C839.566 0.655205 837.638 0.951079 838.208 1.01468C838.768 1.07826 839.379 1.01281 840.076 1.04776C840.77 1.08271 839.267 1.12595 840.9 1.13907C842.533 1.15218 846.999 1.03907 847.578 0.972569C848.802 0.831672 846.79 0.683794 851.112 0.735753C851.361 0.738837 850.554 0.816636 851.506 0.824498C859.066 0.884391 866.921 0.888103 874.472 0.941075C875.51 0.948481 874.582 1.03503 875.186 1.04032C881.48 1.09568 879.23 0.949745 882.68 0.787633C881.905 1.00337 883.813 1.13536 888.589 1.13663C891.461 1.13747 890.967 1.04325 892.824 0.976842C893.381 0.956823 895.413 1.02152 895.781 0.977208C896.995 0.83236 895.081 0.670211 900.006 0.734777C900.222 0.737845 899.534 0.817133 900.281 0.821935C905.107 0.853365 905.684 0.701856 910.901 0.683508C914.99 0.669111 922.262 0.761499 926.918 0.776525C926.82 1.01907 931.218 0.963534 933.002 0.7963C936.023 0.803147 939.287 0.793693 942.207 0.816808C943.213 0.824689 942.552 0.894913 942.679 0.902501C944.622 1.02153 945.936 0.858831 946.588 0.852452C953.657 0.790448 959.416 0.913761 966.162 0.793248C966.402 0.788908 966.79 0.620425 968.593 0.743444C968.71 0.751924 966.482 0.82858 969.655 0.834508C972.829 0.840449 978.812 0.930768 983.219 0.852696C984.285 0.833901 986.982 0.697128 989.147 0.803991C989.435 0.818502 989.12 0.866823 989.536 0.893712C990.881 0.979391 991.616 0.809097 993.198 0.95377C994.779 1.09844 998.07 1.20678 1002.51 1.10697C1002.65 1.10407 1003.71 0.969092 1005.1 0.971226C1007.34 0.974749 1010.5 1.00287 1012.83 1.00199C1013.95 1.00152 1013.23 0.917706 1013.43 0.916173C1020.93 0.869207 1026.26 0.943925 1034.3 0.976353C1035.77 0.982464 1040 0.868173 1042.85 0.958531C1045.98 1.05745 1042.77 1.46891 1049.96 1.37088C1052.86 1.33167 1056.54 0.809653 1061.75 1.08011C1071.87 1.01309 1081.22 1.15151 1091.37 1.05582C1091.82 1.05158 1093.26 0.905889 1094.34 0.907872C1095.93 0.911098 1096.8 0.979192 1097.94 0.983678C1102.7 1.00419 1107.06 0.945929 1111.65 0.954991C1113.4 0.958284 1112.79 1.02869 1114.87 1.03263C1116.95 1.0365 1118.33 0.943782 1121.15 0.98856C1123.27 1.02269 1125.4 1.2122 1128.22 1.23429C1128.33 1.04736 1130.27 1.05121 1133.72 1.00187C1134.38 0.992292 1133.67 0.927231 1133.98 0.919347C1135.26 0.885814 1136.44 0.939735 1137.65 0.903233C1137.94 0.894467 1137.96 0.83063 1138.2 0.81986C1140.25 0.725848 1143.62 0.869442 1144.2 0.894444C1146.42 0.989396 1147.46 0.906369 1149.16 0.943761C1150.86 0.981147 1148.32 1.02788 1150.31 1.05057C1154.43 1.0975 1159.72 1.08719 1163.9 1.09012C1165.57 1.0909 1164.43 1.00569 1164.67 1.00382C1168.12 0.982207 1171.61 1.07285 1173.52 0.903111C1175.91 1.34199 1175.6 0.860543 1180.53 0.948399C1180.92 0.955505 1181.42 1.16305 1179.92 1.19352C1178.43 1.22396 1176.17 1.15908 1174.1 1.20658C1173.61 1.21772 1170.8 1.4122 1170.42 1.42398C1167.42 1.51605 1167 1.20591 1166.84 1.18888C1165.04 1.00505 1161.61 1.21456 1160.7 1.22904C1156.57 1.29537 1153.06 1.25176 1149.6 1.29911C1147.34 1.32971 1147.12 1.53286 1145.35 1.52664C1139.44 1.50609 1137.38 1.22269 1131.82 1.46842C1130.63 1.52083 1131.82 1.74287 1127.54 1.56827C1127.27 1.55726 1124.1 1.39754 1122.27 1.49857C1122.04 1.51131 1122.05 1.57602 1121.74 1.58145C1119.71 1.61662 1118.35 1.56506 1116.14 1.58975C1113.92 1.61445 1111.25 1.65125 1108.72 1.62931C1107.2 1.61618 1105.24 1.49562 1104.51 1.4661C1102.45 1.38107 1100.24 1.52048 1098.96 1.41751C1097.68 1.31403 1100.19 1.15687 1096.82 1.09C1096.69 1.25812 1096.41 1.43069 1096.2 1.59976C1088.8 1.59384 1081.52 1.53948 1074.1 1.54691C1073.18 1.548 1074.12 1.63838 1073.13 1.64188C1068.97 1.65624 1065.33 1.59181 1061.02 1.61746C1057.67 1.63767 1054.01 1.73337 1050.51 1.75748C1048.38 1.5651 1043.19 1.63041 1039.43 1.61283C1038.11 1.60675 1038.2 1.55537 1037.26 1.53861C1033.72 1.47661 1035.38 1.64662 1034.41 1.67337C1030.24 1.78756 1029.89 1.40276 1024.98 1.41227C1024.72 1.41264 1021.54 1.61775 1021.1 1.63053C1018.32 1.71382 1020.64 1.55913 1018.9 1.54398C1015.72 1.51628 1013.51 1.4673 1009.78 1.52738C1008.69 1.54517 1006.08 1.67302 1003.97 1.57413C1003.69 1.56118 1003.84 1.49338 1003.62 1.48941C999.573 1.42323 999.466 1.63626 997.153 1.70841C994.839 1.78054 991.266 1.63348 990.538 1.5911C988.636 1.48145 991.996 1.54424 992.099 1.53348C993.31 1.40543 990.703 1.42748 988.712 1.41666C988.423 1.20778 985.638 1.22032 986.647 1.40628C986.762 1.4266 988.312 1.40712 988.712 1.41666C986.964 1.6216 983.903 1.64784 980.522 1.45633C978.94 1.36657 980.436 1.26192 975.629 1.3002C973.447 1.31749 974.29 1.46131 972.365 1.50052C967.967 1.58999 962.251 1.45582 957.716 1.47696C956.071 1.48464 957.674 1.56336 956.549 1.57132C953.564 1.59269 950.932 1.53362 947.934 1.56388C947.663 1.56672 948.326 1.64913 947.394 1.65018C940.327 1.65975 934.173 1.60696 926.794 1.6055C923.229 1.60483 916.855 1.65028 913.162 1.64115C906.761 1.62579 898.887 1.50595 893.419 1.53507C889.852 1.5537 890.635 1.63613 889.107 1.69229C886.158 1.80116 880.938 1.60616 880.235 1.57596C880.214 1.57496 883.283 1.55553 881.645 1.51322C880.693 1.42505 880.27 1.57558 880.235 1.57596C879.774 1.55645 873.643 1.53774 872.426 1.5535C871.764 1.56211 872.134 1.64021 871.789 1.64322C863.592 1.71311 855.38 1.73296 847.066 1.69644C846.919 1.69487 847.14 1.60751 846.796 1.60489C841.982 1.56605 838.9 1.67291 834.93 1.73636C830.961 1.79978 827.813 1.77854 825.464 1.62857C822.469 1.64745 818.172 1.58116 815.7 1.54093C813.227 1.5007 812.882 1.67074 812.665 1.6741C805.879 1.7817 801.957 1.68437 794.917 1.66922C791.57 1.66173 784.931 1.68639 781.308 1.70499C778.444 1.71997 776.719 1.68012 774.08 1.7056C773.723 1.709 774.083 1.78471 773.974 1.78763C771.029 1.87822 772.445 1.69312 771.837 1.66007C769.632 1.53985 768.27 1.47583 764.499 1.53238C763.629 1.54533 761.095 1.81184 759.509 1.82742C757.447 1.8472 758.225 1.75167 756.067 1.77481C755.882 1.77671 755.92 1.83564 754.588 1.83304C748.404 1.82175 741.661 1.78746 735.234 1.79337C734.356 1.79395 735.481 1.88742 734.213 1.8898C728.261 1.90088 721.737 1.89742 715.939 1.85367C714.512 1.84261 715.406 1.77716 715.097 1.75772C713.195 1.64014 710.497 1.81099 710.052 1.81424C699.435 1.89634 691.311 1.74173 680.49 1.81534C679.901 1.81966 675.367 2.00281 673.344 1.84574C673.206 1.83528 671.204 1.67458 669.435 1.78446C669.325 1.79133 670.572 1.87407 668.396 1.86563C666.219 1.85722 662.717 1.91247 659.726 1.82157C658.778 1.79293 656.54 1.63262 653.715 1.76041C653.531 1.76933 649.17 2.05828 647.613 1.85892C647.361 1.8261 647.625 1.61513 644.253 1.7233C643.609 1.74427 644.778 1.79133 643.081 1.82071C640.481 1.866 637.036 1.80949 633.839 1.90347C633.281 1.92011 630.908 2.06331 629.005 1.95462C628.707 1.9376 629.273 1.86717 628.268 1.85929C623.488 1.82148 618.482 1.86859 613.629 1.81986C611.909 1.80273 612.788 1.68887 610.996 1.65836C609.204 1.62786 605.593 1.59851 603.718 1.65055C601.842 1.7026 603.891 1.88407 601.081 1.89859C588.865 1.96166 576.764 1.8552 564.565 1.83963C562.756 1.83731 564.256 1.90224 561.59 1.90347C551.76 1.90831 534.789 1.96919 526.26 1.83121C519.425 1.72069 528.026 1.63656 522.803 1.59159C520.283 1.57013 517.557 1.78111 516.949 1.78775C511.006 1.85522 506.875 1.76176 501.527 1.79044C500.422 1.79639 501.505 1.8819 500.565 1.88602C497.354 1.90085 493.979 1.86268 490.911 1.86966C489.534 1.87299 489.788 1.9383 488.521 1.93326C485.491 1.92195 482.811 1.8945 479.856 1.83328C479.587 1.82771 481.403 1.74646 479.16 1.74344C475.531 1.73878 471.026 1.67839 466.851 1.74076C465.612 1.75951 465.563 1.90878 462.9 1.8057C462.342 1.78417 463.054 1.60493 459.952 1.7598C459.431 1.78553 454.22 1.99442 451.662 1.85977C450.988 1.82434 449.266 1.67767 447.776 1.70072C447.574 1.70439 448.383 1.78457 447.149 1.79239C442.798 1.81856 438.238 1.81 433.768 1.83512C432.575 1.84198 434.352 1.92495 432.573 1.93253C427.681 1.9535 421.574 1.93237 416.79 1.9064C415.026 1.89667 416.245 1.82795 416.117 1.82047C414.053 1.69882 412.833 1.86302 412.148 1.87259C407.888 1.92992 404.644 1.85279 400.718 1.8732C399.634 1.87863 400.402 1.95692 400.187 1.9639C397.95 2.03211 399.616 1.89151 398.2 1.87601C394.233 1.83212 389.811 1.83842 385.799 1.84842C384.326 1.85221 385.982 1.94299 384.659 1.94534C376.832 1.96099 368.696 1.9523 361.057 1.90225C359.619 1.89267 360.524 1.82276 360.224 1.80679C358.158 1.69509 355.13 1.84746 354.433 1.86197C351.265 1.92824 350.035 1.86642 347.237 1.87796C333.57 1.93541 316.696 1.89447 303.795 1.86917C286.984 1.83662 273.94 1.77012 257.909 1.78739C256.89 1.7884 257.917 1.88139 257.039 1.88345C245.699 1.90587 234.536 1.86953 223.174 1.89639C222.241 1.89843 223.585 1.98659 222.089 1.99283C219.019 2.00624 215.131 2.00145 212.027 1.9733C210.513 1.95974 212.544 1.88409 211.02 1.87198C207.472 1.84362 203.669 1.83734 200.024 1.85147C198.474 1.85768 200.814 1.94784 198.798 1.94888C185.066 1.95783 171.58 1.97336 157.704 1.8566C156.753 1.84858 155.918 1.66533 153.896 1.70047C153.743 1.75133 153.751 1.81115 153.685 1.86551C133.695 1.89479 113.91 1.83127 93.8643 1.82144C93.0192 1.82105 94.4798 1.91815 92.8435 1.91788C83.3731 1.91644 74.1767 1.94334 64.4896 1.84683C63.5284 1.8374 64.0215 1.66658 61.1891 1.69242C60.6895 1.69713 56.4235 1.71991 55.3205 1.75699C55.1707 1.76258 55.949 1.84231 54.5744 1.84464C46.5858 1.85674 38.2143 1.83854 30.2396 1.78983C28.9526 1.78181 30.3232 1.69691 29.4065 1.69046C22.9039 1.64539 15.8309 1.70993 9.61732 1.63285C5.45818 1.58094 6.99801 1.43417 4.7879 1.28971C4.4753 1.26932 1.89984 1.26609 1.76665 1.18204C1.42473 0.970681 2.6722 0.739242 2.16033 0.513952C2.05219 0.465427 -1.39702 0.517692 0.645131 0.400427C0.787797 0.392579 3.28849 0.35366 3.90441 0.31388C4.33324 0.286376 3.56048 0.200894 4.43542 0.165687C5.31029 0.130513 6.27165 0.202169 7.72217 0.160804C9.17204 0.118927 8.53452 0.0216813 11.4301 0.0101699ZM804.567 1.36112C802.277 1.27946 801.94 1.57855 804.416 1.50699C804.536 1.50318 804.685 1.36512 804.567 1.36112ZM1081.56 1.31388C1078.57 1.18195 1076.52 1.37593 1078.64 1.47782C1080.75 1.57959 1082.48 1.35387 1081.56 1.31388ZM1112.6 1.21756C1109.1 1.11355 1108.55 1.53768 1112.3 1.45194C1112.52 1.44709 1112.81 1.2236 1112.6 1.21756ZM15.0372 1.24857C15.0056 1.2446 13.1543 1.24073 13.1101 1.24466C12.1243 1.33965 15.8262 1.34733 15.0372 1.24857ZM1143.4 1.11271C1142.31 1.05533 1139.16 1.12156 1140.52 1.19291C1141.61 1.2503 1144.76 1.18407 1143.4 1.11271ZM685.141 1.0419C685.104 1.03745 683.777 1.03343 683.804 1.05863C683.894 1.13977 685.741 1.11687 685.141 1.0419ZM1195.74 1.10782C1188.01 1.09186 1183.32 0.741508 1191.74 0.781041C1193.27 0.788194 1188.46 0.892765 1190.4 0.924351C1193.95 0.981896 1196.31 0.761919 1199.93 0.879796C1200.59 0.901371 1196.19 1.10951 1195.73 1.10831C1195.74 1.10815 1195.74 1.10799 1195.74 1.10782ZM803.248 1.00187C803.203 0.997911 801.365 0.994161 801.321 0.998082C800.326 1.09304 804.028 1.10065 803.248 1.00187ZM607.691 0.856969C607.59 0.848541 603.326 0.840659 603.187 0.848424C600.962 1.0037 609.583 1.0201 607.691 0.856969ZM926.991 0.782995C928.996 0.68747 931.395 0.676223 932.993 0.796178C931 0.78981 928.995 0.788872 926.991 0.782995Z" fill="#101111"/>
</svg>
