<svg width="713" height="2" viewBox="0 0 713 2" fill="none" xmlns="http://www.w3.org/2000/svg">
<path d="M6.79136 0.00762796C10.7868 -0.0119113 16.0242 0.00898168 20.0046 0.0376583C21.252 0.0465523 20.6203 0.0863084 21.4815 0.0942379C23.1656 0.109696 24.7347 0.0901978 26.399 0.108612C26.9506 0.114909 26.264 0.177883 26.8424 0.183044C30.0117 0.210875 33.01 0.194835 36.2205 0.208222C52.0347 0.274269 67.5796 0.29791 83.5873 0.326603C88.8654 0.336011 95.2817 0.393162 100.733 0.36817C101.37 0.365196 100.99 0.309921 101.112 0.305365C103.011 0.235621 102.379 0.34721 103.619 0.362036C108.541 0.420575 114.014 0.425667 118.75 0.404334C120.765 0.395097 118.745 0.285307 120.774 0.346931C120.914 0.351095 120.403 0.409793 120.956 0.416053C122.209 0.430134 124.587 0.419643 125.558 0.424294C127.43 0.433554 127.739 0.432963 129.51 0.433632C131.93 0.435058 134.809 0.464236 137.406 0.450936C137.96 0.447923 137.226 0.387751 138.11 0.377511C138.995 0.367288 141.336 0.372391 142.125 0.386575C142.914 0.400767 142.578 0.448061 142.718 0.458902C143.867 0.5504 146.574 0.423676 146.923 0.420542C153.274 0.367143 158.721 0.439334 164.683 0.439128C169.21 0.43882 174.049 0.414987 178.356 0.418256C183.487 0.422383 187.836 0.45499 192.821 0.449385C193.347 0.448863 192.73 0.378114 193.373 0.377333C200.199 0.369101 206.978 0.376814 213.775 0.424576C214.456 0.429428 213.578 0.491545 214.259 0.500107C218.428 0.551156 225.025 0.673788 227.502 0.403337C230.326 0.413898 233.755 0.42481 236.282 0.479326C237.911 0.514414 236.328 0.582084 238.33 0.553209C238.781 0.546776 238.194 0.487514 238.871 0.482348C241.721 0.460653 244.834 0.479917 247.653 0.449298C248.227 0.442931 248.07 0.38983 248.233 0.380268C249.598 0.302828 251.871 0.430841 252.367 0.440143C256.14 0.509509 258.896 0.482212 262.412 0.483906C263.227 0.484329 262.263 0.413002 263.048 0.410847C267.119 0.400625 271.337 0.406756 275.323 0.438406C276.21 0.445617 275.394 0.506374 275.818 0.512929C277.686 0.541092 278.1 0.426337 279.892 0.451132C280.27 0.456212 280.057 0.508224 280.126 0.513937C281.205 0.603608 282.142 0.476551 282.419 0.473746C285.928 0.435417 288.171 0.568059 291.561 0.549277C291.966 0.546896 291.052 0.481084 292.192 0.478416C299.786 0.460248 307.818 0.478328 315.335 0.530969C316.504 0.539065 315.669 0.588503 315.743 0.594598C316.942 0.689824 317.717 0.562232 318.098 0.557428C321.105 0.522839 323.913 0.629839 325.956 0.477869C338.689 0.530609 351.364 0.445271 363.991 0.581418C364.152 0.582995 363.864 0.645834 364.184 0.648709C368.041 0.683993 367.3 0.58633 369.852 0.466887C370.495 0.436894 372.451 0.581102 372.624 0.591673C373.254 0.630626 372.601 0.724113 372.812 0.731657C374.559 0.790894 374.274 0.481727 376.63 0.481627C376.704 0.482143 376.395 0.539049 376.592 0.544707C377.207 0.562471 377.816 0.539858 378.417 0.559447C379.794 0.604774 380.284 0.755003 382.386 0.667571C382.652 0.656223 382.246 0.480851 384.349 0.489135C385.188 0.492587 388.901 0.489581 389.941 0.500946C390.981 0.512297 390.267 0.568811 390.341 0.571258C393.142 0.645988 392.08 0.67696 393.483 0.787597C394.886 0.897817 394.497 0.634933 395.069 0.605591C395.641 0.576333 397.695 0.63799 398.199 0.659424C398.703 0.680867 398.074 0.716778 398.523 0.728912C401.496 0.808194 399.828 0.598426 400.807 0.556702C403.117 0.457908 404.916 0.652864 407.031 0.671968C407.603 0.677126 407.136 0.632724 407.645 0.628572C409.663 0.612714 410.876 0.673546 413.172 0.617769C413.548 0.60868 415.403 0.491467 416.605 0.577486C416.775 0.58989 416.291 0.638472 417.151 0.649355C418.436 0.665687 420.75 0.676306 422.131 0.660067C423.151 0.648052 421.982 0.567999 423.266 0.592868C423.836 0.603972 422.779 0.650803 423.85 0.667758C424.916 0.684707 427.641 0.68265 428.678 0.681033C429.713 0.67938 429.147 0.618657 429.23 0.614566C429.736 0.591132 431.723 0.561851 431.898 0.561924C440.753 0.554512 448.918 0.656868 457.539 0.622991C458.215 0.620421 457.765 0.556386 457.868 0.555334C460.184 0.528505 458.358 0.698757 459.976 0.755743C459.742 0.625799 460.697 0.649327 462.329 0.635077C463.115 0.628104 462.687 0.577789 462.758 0.572638C463.924 0.496215 464.736 0.594925 464.945 0.615118C465.717 0.689399 466.557 0.601632 467.083 0.651282C467.608 0.700561 466.4 0.773616 467.964 0.77268C468.403 0.726165 467.241 0.604607 468.429 0.584906C472.911 0.510387 481.278 0.605762 484.882 0.61567C488.478 0.625569 489.64 0.616987 491.736 0.633798C495.522 0.664193 494.134 0.574005 496.485 0.532724C498.842 0.491448 497.696 0.713352 498.035 0.761056C498.368 0.808738 498.731 0.759654 499.145 0.785867C499.557 0.812073 498.664 0.844508 499.634 0.854348C500.605 0.864179 503.259 0.77935 503.603 0.729471C504.33 0.623798 503.134 0.512889 505.703 0.551859C505.85 0.554172 505.371 0.612521 505.936 0.618418C510.429 0.663338 515.096 0.666122 519.582 0.705852C520.199 0.711406 519.648 0.776317 520.006 0.780284C523.746 0.821803 522.409 0.712354 524.459 0.590771C523.999 0.752572 525.132 0.851564 527.97 0.852519C529.676 0.853151 529.383 0.782484 530.486 0.732678C530.817 0.717664 532.024 0.766186 532.243 0.732952C532.965 0.624316 531.827 0.502705 534.754 0.551129C534.882 0.553431 534.473 0.612896 534.917 0.616498C537.784 0.640071 538.127 0.526439 541.227 0.512678C543.657 0.50188 547.977 0.571172 550.744 0.582442C550.686 0.764354 553.299 0.722699 554.359 0.597274C556.154 0.602409 558.093 0.595318 559.828 0.612655C560.425 0.618565 560.033 0.671234 560.108 0.676925C561.263 0.766197 562.044 0.644172 562.431 0.639388C566.631 0.592886 570.053 0.685371 574.061 0.594986C574.204 0.591731 574.434 0.465369 575.506 0.557633C575.575 0.563993 574.251 0.621485 576.137 0.625931C578.023 0.630387 581.578 0.698127 584.196 0.639573C584.829 0.625477 586.432 0.522897 587.718 0.603044C587.889 0.613928 587.702 0.650169 587.949 0.670335C588.749 0.734595 589.185 0.606874 590.125 0.715379C591.065 0.82388 593.02 0.905138 595.66 0.830278C595.744 0.828102 596.369 0.726871 597.199 0.728472C598.525 0.731114 600.407 0.752203 601.791 0.751544C602.453 0.751191 602.029 0.688332 602.144 0.687182C606.6 0.651959 609.771 0.707997 614.544 0.732319C615.419 0.736902 617.934 0.651184 619.628 0.718952C621.488 0.793138 619.576 1.10174 623.852 1.02822C625.576 0.99881 627.759 0.607295 630.858 0.81014C636.868 0.759877 642.426 0.863692 648.453 0.791922C648.724 0.788743 649.581 0.679474 650.218 0.680961C651.164 0.68338 651.683 0.734451 652.359 0.737815C655.189 0.753199 657.779 0.709505 660.508 0.716301C661.544 0.71877 661.181 0.771577 662.417 0.774529C663.652 0.777431 664.475 0.707895 666.149 0.741478C667.412 0.767077 668.676 0.909207 670.353 0.925774C670.418 0.785579 671.569 0.788466 673.617 0.751458C674.011 0.744278 673.589 0.695482 673.775 0.689569C674.533 0.66442 675.234 0.70486 675.954 0.677484C676.129 0.670909 676.137 0.623032 676.28 0.614954C677.497 0.544445 679.502 0.652141 679.846 0.670893C681.166 0.742107 681.782 0.679836 682.794 0.70788C683.805 0.73592 682.294 0.770973 683.474 0.787989C685.921 0.823184 689.065 0.815452 691.55 0.817652C692.541 0.818235 691.865 0.754325 692.006 0.752925C694.057 0.736716 696.13 0.804697 697.267 0.677394C698.688 1.00655 698.503 0.645468 701.434 0.711361C701.664 0.71669 701.958 0.872346 701.072 0.895198C700.186 0.918028 698.842 0.869372 697.612 0.904994C697.321 0.913353 695.653 1.05921 695.425 1.06805C693.643 1.1371 693.39 0.904494 693.296 0.891718C692.226 0.753845 690.188 0.910981 689.651 0.921839C687.195 0.97159 685.109 0.938878 683.055 0.974389C681.712 0.997341 681.581 1.14971 680.526 1.14504C677.019 1.12963 675.795 0.917076 672.491 1.10137C671.783 1.14068 672.487 1.30721 669.948 1.17626C669.789 1.16801 667.904 1.04821 666.815 1.12398C666.678 1.13354 666.682 1.18207 666.502 1.18615C665.293 1.21252 664.487 1.17386 663.17 1.19237C661.853 1.21089 660.27 1.2385 658.767 1.22204C657.861 1.21219 656.698 1.12177 656.264 1.09963C655.04 1.03586 653.727 1.14042 652.968 1.06319C652.203 0.985577 653.699 0.867706 651.692 0.817557C651.618 0.94365 651.447 1.07307 651.328 1.19988C646.931 1.19544 642.605 1.15467 638.194 1.16024C637.647 1.16105 638.206 1.22884 637.62 1.23146C635.146 1.24223 632.985 1.19391 630.42 1.21315C628.434 1.22831 626.257 1.30008 624.181 1.31816C622.912 1.17388 619.831 1.22286 617.593 1.20967C616.809 1.20512 616.862 1.16658 616.304 1.15401C614.2 1.10751 615.186 1.23502 614.609 1.25508C612.135 1.34072 611.923 1.05212 609.006 1.05925C608.852 1.05953 606.963 1.21337 606.703 1.22295C605.05 1.28542 606.429 1.1694 605.394 1.15804C603.505 1.13727 602.193 1.10053 599.976 1.14559C599.33 1.15893 597.78 1.25482 596.525 1.18065C596.36 1.17094 596.451 1.12009 596.318 1.11711C593.913 1.06747 593.85 1.22725 592.475 1.28136C591.1 1.33546 588.977 1.22516 588.545 1.19337C587.414 1.11114 589.411 1.15823 589.472 1.15016C590.191 1.05413 588.643 1.07066 587.46 1.06255C587.288 0.905888 585.633 0.915291 586.233 1.05476C586.301 1.07 587.222 1.05539 587.46 1.06255C586.421 1.21625 584.602 1.23593 582.594 1.0923C581.653 1.02498 582.542 0.946491 579.686 0.975204C578.39 0.988166 578.891 1.09603 577.747 1.12544C575.133 1.19254 571.737 1.09192 569.043 1.10777C568.065 1.11353 569.018 1.17257 568.35 1.17854C566.576 1.19456 565.012 1.15026 563.231 1.17296C563.069 1.17509 563.464 1.2369 562.91 1.23768C558.711 1.24486 555.055 1.20527 550.67 1.20417C548.552 1.20367 544.765 1.23776 542.571 1.23091C538.767 1.21939 534.089 1.12951 530.84 1.15135C528.721 1.16532 529.186 1.22714 528.278 1.26927C526.525 1.35091 523.424 1.20466 523.006 1.18202C522.994 1.18127 524.817 1.16669 523.844 1.13496C523.279 1.06883 523.027 1.18173 523.006 1.18202C522.732 1.16739 519.09 1.15335 518.366 1.16517C517.973 1.17163 518.193 1.2302 517.988 1.23246C513.117 1.28488 508.238 1.29976 503.298 1.27238C503.211 1.27119 503.342 1.20568 503.138 1.20371C500.278 1.17458 498.447 1.25473 496.088 1.30231C493.729 1.34988 491.859 1.33395 490.463 1.22147C488.684 1.23563 486.131 1.18591 484.661 1.15574C483.192 1.12557 482.987 1.2531 482.858 1.25562C478.826 1.33632 476.496 1.26332 472.313 1.25196C470.325 1.24634 466.38 1.26484 464.227 1.27878C462.525 1.29002 461.5 1.26013 459.932 1.27924C459.72 1.28179 459.934 1.33858 459.87 1.34076C458.12 1.4087 458.961 1.26988 458.6 1.24509C457.29 1.15493 456.481 1.10691 454.24 1.14933C453.723 1.15904 452.217 1.35892 451.275 1.37061C450.05 1.38544 450.512 1.31379 449.23 1.33115C449.12 1.33257 449.143 1.37677 448.351 1.37482C444.676 1.36635 440.67 1.34063 436.851 1.34506C436.33 1.3455 436.999 1.41561 436.245 1.41739C432.708 1.4257 428.832 1.42311 425.387 1.39029C424.539 1.38199 425.071 1.3329 424.887 1.31833C423.756 1.23014 422.154 1.35828 421.889 1.36072C415.581 1.42229 410.754 1.30633 404.324 1.36154C403.974 1.36478 401.28 1.50215 400.079 1.38434C399.996 1.3765 398.807 1.25597 397.756 1.33838C397.69 1.34353 398.431 1.40558 397.138 1.39926C395.845 1.39295 393.764 1.43439 391.987 1.36621C391.424 1.34473 390.094 1.2245 388.416 1.32034C388.306 1.32703 385.715 1.54374 384.79 1.39422C384.64 1.36961 384.797 1.21138 382.794 1.29251C382.411 1.30824 383.106 1.34353 382.097 1.36557C380.552 1.39953 378.505 1.35715 376.606 1.42764C376.275 1.44012 374.865 1.54751 373.734 1.466C373.557 1.45323 373.893 1.40041 373.296 1.3945C370.456 1.36614 367.482 1.40147 364.598 1.36492C363.576 1.35208 364.098 1.26668 363.034 1.2438C361.969 1.22092 359.823 1.19892 358.709 1.23794C357.595 1.27698 358.812 1.41308 357.142 1.42397C349.884 1.47127 342.694 1.39143 335.446 1.37975C334.371 1.37801 335.262 1.42671 333.678 1.42763C327.837 1.43126 317.754 1.47692 312.686 1.37343C308.625 1.29055 313.735 1.22745 310.632 1.19372C309.135 1.17763 307.515 1.33586 307.154 1.34084C303.623 1.39144 301.169 1.32135 297.99 1.34285C297.334 1.34732 297.978 1.41145 297.419 1.41454C295.511 1.42566 293.506 1.39704 291.683 1.40227C290.865 1.40477 291.016 1.45375 290.263 1.44997C288.462 1.44149 286.87 1.4209 285.114 1.37499C284.954 1.3708 286.033 1.30987 284.701 1.30761C282.545 1.30411 279.868 1.25882 277.387 1.30559C276.651 1.31966 276.622 1.43161 275.04 1.3543C274.708 1.33815 275.132 1.20372 273.288 1.31987C272.978 1.33917 269.882 1.49584 268.363 1.39485C267.962 1.36828 266.939 1.25827 266.053 1.27556C265.933 1.27832 266.414 1.33845 265.681 1.34432C263.096 1.36394 260.386 1.35753 257.731 1.37636C257.021 1.38151 258.078 1.44373 257.021 1.44942C254.114 1.46515 250.485 1.4493 247.643 1.42982C246.595 1.42253 247.319 1.37098 247.243 1.36537C246.017 1.27413 245.292 1.39728 244.885 1.40446C242.354 1.44746 240.426 1.38961 238.093 1.40492C237.449 1.40899 237.906 1.46771 237.778 1.47295C236.448 1.5241 237.439 1.41865 236.597 1.40703C234.24 1.37411 231.613 1.37883 229.229 1.38634C228.353 1.38918 229.337 1.45726 228.552 1.45903C223.901 1.47076 219.067 1.46424 214.528 1.42671C213.673 1.41952 214.211 1.36709 214.033 1.35511C212.805 1.27134 211.006 1.38561 210.592 1.3965C208.71 1.4462 207.979 1.39984 206.317 1.40849C198.196 1.45157 188.17 1.42087 180.505 1.4019C170.517 1.37748 162.766 1.3276 153.241 1.34055C152.635 1.34131 153.246 1.41106 152.724 1.4126C145.986 1.42942 139.353 1.40216 132.602 1.42231C132.048 1.42384 132.847 1.48996 131.958 1.49463C130.134 1.50469 127.823 1.5011 125.979 1.47998C125.08 1.46981 126.286 1.41308 125.381 1.404C123.273 1.38272 121.013 1.37802 118.848 1.38861C117.926 1.39327 119.317 1.46089 118.119 1.46167C109.96 1.46838 101.947 1.48003 93.7026 1.39246C93.1373 1.38644 92.6414 1.24901 91.4396 1.27536C91.3491 1.3135 91.354 1.35837 91.3145 1.39914C79.4374 1.4211 67.6815 1.37346 55.771 1.36609C55.2689 1.36579 56.1367 1.43861 55.1645 1.43841C49.5375 1.43734 44.0733 1.45751 38.3175 1.38513C37.7465 1.37805 38.0395 1.24994 36.3565 1.26931C36.0597 1.27285 33.525 1.28994 32.8696 1.31775C32.7806 1.32194 33.2431 1.38174 32.4263 1.38348C27.6797 1.39256 22.7057 1.37891 17.9674 1.34237C17.2027 1.33636 18.017 1.27268 17.4724 1.26785C13.6087 1.23404 9.40618 1.28245 5.71429 1.22463C3.24307 1.1857 4.15799 1.07563 2.84481 0.96728C2.65908 0.951994 1.12882 0.949571 1.04969 0.886531C0.846526 0.728011 1.58773 0.554432 1.2836 0.385464C1.21934 0.34907 -0.830065 0.388269 0.383315 0.300321C0.468083 0.294434 1.95391 0.265245 2.31987 0.23541C2.57467 0.214783 2.11552 0.150671 2.63538 0.124265C3.1552 0.0978849 3.72641 0.151627 4.58826 0.120603C5.44972 0.089196 5.07093 0.0162614 6.79136 0.00762796ZM478.047 1.02088C476.686 0.959633 476.486 1.18395 477.957 1.13029C478.028 1.12742 478.117 1.02388 478.047 1.02088ZM642.63 0.985464C640.851 0.886522 639.634 1.03201 640.889 1.10842C642.143 1.18475 643.172 1.01546 642.63 0.985464ZM661.07 0.91323C658.992 0.83522 658.665 1.15332 660.891 1.08901C661.02 1.08538 661.192 0.91776 661.07 0.91323ZM8.93463 0.936428C8.91585 0.933449 7.81585 0.930545 7.78956 0.933498C7.20383 1.00474 9.40339 1.0105 8.93463 0.936428ZM679.37 0.834588C678.721 0.791559 676.853 0.841231 677.659 0.894738C678.308 0.937783 680.178 0.888115 679.37 0.834588ZM407.088 0.781464C407.066 0.778122 406.278 0.775111 406.294 0.794007C406.347 0.854865 407.444 0.837689 407.088 0.781464ZM710.472 0.830929C705.877 0.818955 703.09 0.556192 708.095 0.585843C709.001 0.591208 706.141 0.669636 707.295 0.693325C709.405 0.736484 710.807 0.571501 712.96 0.659909C713.35 0.676091 710.734 0.832196 710.464 0.831295C710.466 0.831173 710.469 0.831051 710.472 0.830929ZM477.263 0.751441C477.236 0.748475 476.145 0.745662 476.118 0.748603C475.527 0.819818 477.726 0.825526 477.263 0.751441ZM361.07 0.642758C361.01 0.636437 358.476 0.630525 358.394 0.636349C357.072 0.752806 362.194 0.765103 361.07 0.642758ZM550.787 0.587294C551.979 0.515651 553.403 0.507216 554.353 0.597182C553.169 0.592406 551.978 0.591702 550.787 0.587294Z" fill="#E7F7FA" fill-opacity="0.6"/>
</svg>
